<?xml version="1.0" standalone="no"?>
<!DOCTYPE svg PUBLIC "-//W3C//DTD SVG 20010904//EN"
 "http://www.w3.org/TR/2001/REC-SVG-20010904/DTD/svg10.dtd">
<svg version="1.0" xmlns="http://www.w3.org/2000/svg"
 width="1169.000000pt" height="1280.000000pt" viewBox="0 0 1169.000000 1280.000000"
 preserveAspectRatio="xMidYMid meet">
<g transform="translate(0.000000,1280.000000) scale(0.100000,-0.100000)"
fill="#000000" stroke="none">
<path d="M6600 12155 c-188 -16 -294 -30 -425 -56 -496 -100 -905 -245 -1440
-509 -302 -149 -598 -314 -820 -455 -432 -277 -651 -438 -998 -734 -308 -262
-830 -794 -1042 -1061 -16 -21 -66 -82 -110 -136 -68 -83 -188 -242 -280 -369
-398 -552 -738 -1204 -939 -1805 -72 -216 -144 -475 -171 -615 -5 -22 -9 -46
-11 -53 -26 -132 -36 -190 -64 -364 -52 -332 -52 -1072 1 -1428 15 -103 58
-335 78 -420 58 -249 161 -531 282 -770 218 -432 544 -802 969 -1102 243 -171
468 -291 760 -405 195 -76 343 -120 540 -163 274 -58 406 -73 650 -72 248 0
388 16 765 86 93 17 452 107 540 134 33 11 121 38 195 61 74 24 171 55 215 71
139 49 127 51 120 -22 -11 -107 -12 -229 -3 -328 4 -52 9 -108 10 -125 0 -16
15 -84 31 -150 83 -337 281 -622 532 -767 39 -23 82 -49 96 -58 41 -28 174
-61 262 -65 93 -5 216 8 297 31 182 51 387 207 505 383 l50 74 7 -49 c4 -27
10 -70 13 -95 21 -178 105 -325 211 -365 70 -27 183 -16 264 25 74 37 208 136
322 238 331 294 406 368 466 457 65 100 63 161 -10 267 -56 83 -87 179 -105
331 -16 121 -15 141 1 306 10 98 22 206 26 242 5 36 13 112 20 170 6 58 13
116 15 130 2 14 9 63 14 110 6 47 15 120 21 163 5 42 15 112 20 155 6 42 17
129 25 192 14 112 27 211 45 335 5 33 14 96 19 140 30 217 41 303 52 375 5 36
13 97 18 135 13 100 38 286 51 380 6 44 15 112 20 150 5 39 14 106 20 150 6
44 17 134 25 200 8 66 19 158 25 205 21 170 35 293 70 635 5 50 10 120 10 157
0 102 -10 98 268 98 873 2 1540 132 1911 374 245 160 309 285 203 398 -46 50
-95 56 -477 62 -192 3 -397 10 -455 15 -133 13 -440 39 -590 51 -63 5 -164 14
-225 20 -60 6 -155 15 -210 20 -220 22 -491 44 -770 65 -198 15 -592 22 -792
14 -466 -18 -881 -77 -1303 -186 -445 -114 -873 -290 -1237 -507 -436 -259
-879 -656 -1012 -906 -38 -72 -71 -174 -71 -219 1 -51 32 -114 70 -141 25 -18
45 -23 90 -23 82 1 128 25 260 133 31 25 116 86 190 136 728 492 1605 764
2463 764 260 0 357 -22 392 -89 55 -108 58 -781 6 -1306 -34 -331 -55 -490
-81 -595 -31 -127 -44 -172 -62 -225 -32 -96 -103 -235 -151 -295 -72 -91
-364 -301 -632 -456 l-119 -69 -156 0 c-154 0 -156 0 -245 -35 -121 -48 -193
-97 -303 -208 -90 -91 -94 -94 -175 -117 -73 -21 -226 -59 -342 -85 -110 -24
-236 -42 -485 -71 -138 -16 -647 -16 -770 0 -261 33 -453 74 -640 135 -278 90
-604 269 -830 454 -326 269 -599 658 -773 1103 -58 148 -142 433 -161 549 -64
392 -76 518 -76 824 0 259 15 467 51 721 19 130 52 321 69 390 5 22 16 71 25
109 9 38 18 77 20 85 16 77 82 303 130 446 196 584 487 1153 814 1594 115 156
189 243 388 461 522 572 1173 1043 1763 1275 329 130 568 188 895 220 389 37
670 -1 929 -128 106 -51 197 -117 254 -185 97 -114 133 -138 222 -149 61 -7
120 8 225 58 365 172 710 499 753 712 36 176 -58 377 -237 510 -260 192 -779
295 -1271 252z m756 -9237 c-3 -24 -11 -74 -16 -113 -13 -86 -27 -198 -40
-330 -17 -169 -18 -170 -50 -74 -33 101 -83 209 -145 314 -25 43 -44 79 -43
80 25 20 276 165 286 165 12 0 13 -9 8 -42z"/>
</g>
</svg>
